<svg width="41" height="40" viewBox="0 0 41 40" fill="none" xmlns="http://www.w3.org/2000/svg">
<path d="M40.25 20.125C40.25 9.0072 31.2353 0 20.125 0C9.0072 0 0 9.0072 0 20.125C0 30.1674 7.35695 38.4941 16.9805 40.0022V25.9436H11.87V20.1263H16.9805V15.69C16.9805 10.6474 19.9804 7.86259 24.5789 7.86259C26.7813 7.86259 29.0869 8.25502 29.0869 8.25502V13.207H26.5449C24.0494 13.207 23.2695 14.7604 23.2695 16.3516V20.125H28.8504L27.9536 25.9424H23.2695V40.001C32.8855 38.4928 40.25 30.1661 40.25 20.1237V20.125Z" fill="white"/>
</svg>
