<svg width="16" height="16" viewBox="0 0 16 16" fill="none" xmlns="http://www.w3.org/2000/svg">
<path d="M5.33366 13.6666C5.70185 13.6666 6.00033 13.3681 6.00033 12.9999C6.00033 12.6317 5.70185 12.3333 5.33366 12.3333C4.96547 12.3333 4.66699 12.6317 4.66699 12.9999C4.66699 13.3681 4.96547 13.6666 5.33366 13.6666Z" stroke="white" stroke-linecap="round" stroke-linejoin="round"/>
<path d="M12.6667 13.6666C13.0349 13.6666 13.3333 13.3681 13.3333 12.9999C13.3333 12.6317 13.0349 12.3333 12.6667 12.3333C12.2985 12.3333 12 12.6317 12 12.9999C12 13.3681 12.2985 13.6666 12.6667 13.6666Z" stroke="white" stroke-linecap="round" stroke-linejoin="round"/>
<path d="M1.36621 1.3667H2.69954L4.47288 9.6467C4.53793 9.94994 4.70666 10.221 4.95002 10.4133C5.19338 10.6055 5.49615 10.7069 5.80621 10.7H12.3262C12.6297 10.6995 12.9239 10.5956 13.1602 10.4053C13.3966 10.215 13.561 9.94972 13.6262 9.65336L14.7262 4.70003H3.41288" stroke="white" stroke-linecap="round" stroke-linejoin="round"/>
</svg>
