<svg width="40" height="40" viewBox="0 0 40 40" fill="none" xmlns="http://www.w3.org/2000/svg">
<path fill-rule="evenodd" clip-rule="evenodd" d="M11.7544 0.12C13.8878 0.0222182 14.5678 0 20 0C25.4333 0 26.1122 0.0233272 28.2444 0.12C30.3744 0.216673 31.8289 0.555564 33.1011 1.05C34.4355 1.55238 35.6442 2.33953 36.6433 3.35667C37.6605 4.35564 38.4478 5.56447 38.95 6.89889C39.4444 8.17111 39.7822 9.62556 39.88 11.7544C39.9778 13.8878 40 14.5678 40 20C40 25.4322 39.9767 26.1122 39.88 28.2456C39.7833 30.3744 39.4444 31.8289 38.95 33.1011C38.4389 34.4156 37.7544 35.5322 36.6433 36.6433C35.6444 37.6605 34.4355 38.4478 33.1011 38.95C31.8289 39.4444 30.3744 39.7822 28.2456 39.88C26.1122 39.9778 25.4322 40 20 40C14.5678 40 13.8878 39.9767 11.7544 39.88C9.62556 39.7833 8.17111 39.4444 6.89889 38.95C5.58444 38.4389 4.46778 37.7544 3.35667 36.6433C2.33935 35.6444 1.55215 34.4355 1.05 33.1011C0.555564 31.8289 0.217782 30.3744 0.12 28.2456C0.0222182 26.1122 0 25.4333 0 20C0 14.5667 0.0233272 13.8878 0.12 11.7556C0.216673 9.62556 0.555564 8.17111 1.05 6.89889C1.55238 5.56456 2.33953 4.35578 3.35667 3.35667C4.35562 2.33935 5.56446 1.55215 6.89889 1.05C8.17111 0.555564 9.62556 0.217782 11.7544 0.12ZM28.0822 3.72C25.9733 3.62444 25.34 3.60333 20 3.60333C14.66 3.60333 14.0267 3.62444 11.9178 3.72C9.96778 3.80889 8.90889 4.13444 8.20444 4.40889C7.27111 4.77111 6.60444 5.20444 5.90444 5.90444C5.20556 6.60444 4.77111 7.27111 4.40889 8.20444C4.13444 8.90889 3.80889 9.96778 3.72 11.9178C3.62444 14.0267 3.60333 14.66 3.60333 20C3.60333 25.34 3.62444 25.9733 3.72 28.0822C3.80889 30.0322 4.13444 31.0911 4.40889 31.7956C4.72929 32.6644 5.24035 33.4502 5.90444 34.0956C6.54971 34.7596 7.33566 35.2707 8.20444 35.5911C8.90889 35.8656 9.96778 36.1911 11.9178 36.28C14.0267 36.3756 14.6589 36.3967 20 36.3967C25.3411 36.3967 25.9733 36.3756 28.0822 36.28C30.0322 36.1911 31.0911 35.8656 31.7956 35.5911C32.7289 35.2289 33.3956 34.7956 34.0956 34.0956C34.7596 33.4504 35.2707 32.6644 35.5911 31.7956C35.8656 31.0911 36.1911 30.0322 36.28 28.0822C36.3756 25.9733 36.3967 25.34 36.3967 20C36.3967 14.66 36.3756 14.0267 36.28 11.9178C36.1911 9.96778 35.8656 8.90889 35.5911 8.20444C35.2289 7.27111 34.7956 6.60444 34.0956 5.90444C33.3956 5.20556 32.7289 4.77111 31.7956 4.40889C31.0911 4.13444 30.0322 3.80889 28.0822 3.72ZM17.4464 26.1653C18.256 26.5007 19.1236 26.6733 20 26.6733C21.77 26.6733 23.4673 25.9702 24.7187 24.7187C25.9704 23.4673 26.6735 21.7698 26.6735 20C26.6735 18.2302 25.9704 16.5327 24.7187 15.2812C23.4673 14.0297 21.77 13.3267 20 13.3267C19.1236 13.3267 18.256 13.4993 17.4464 13.8346C16.6365 14.17 15.901 14.6615 15.2813 15.2812C14.6616 15.9009 14.1701 16.6365 13.8347 17.4462C13.4993 18.2558 13.3267 19.1236 13.3267 20C13.3267 20.8764 13.4993 21.7442 13.8347 22.5538C14.1701 23.3635 14.6616 24.0991 15.2813 24.7187C15.901 25.3384 16.6365 25.83 17.4464 26.1653ZM12.731 12.7309C14.6589 10.8031 17.2736 9.71998 20 9.71998C22.7265 9.71998 25.3413 10.8031 27.2691 12.7309C29.1969 14.6588 30.28 17.2736 30.28 20C30.28 22.7264 29.1969 25.3411 27.2691 27.2691C25.3413 29.1969 22.7265 30.28 20 30.28C17.2736 30.28 14.6589 29.1969 12.731 27.2691C10.8031 25.3411 9.72006 22.7264 9.72006 20C9.72006 17.2736 10.8031 14.6588 12.731 12.7309ZM32.5595 11.2516C33.0151 10.7959 33.2711 10.1778 33.2711 9.53333C33.2711 8.88884 33.0151 8.27076 32.5595 7.81505C32.1036 7.35935 31.4856 7.10333 30.8411 7.10333C30.1967 7.10333 29.5785 7.35935 29.1229 7.81505C28.6671 8.27076 28.4111 8.88884 28.4111 9.53333C28.4111 10.1778 28.6671 10.7959 29.1229 11.2516C29.5785 11.7073 30.1967 11.9633 30.8411 11.9633C31.4856 11.9633 32.1036 11.7073 32.5595 11.2516Z" fill="white"/>
</svg>
