<svg width="40" height="40" viewBox="0 0 40 40" fill="none" xmlns="http://www.w3.org/2000/svg">
<path d="M19.9761 0C22.7479 0 25.3445 0.525687 27.7658 1.57706C30.1872 2.62843 32.3059 4.05416 34.1219 5.85424C35.9379 7.65432 37.3716 9.76503 38.4229 12.1864C39.4743 14.6077 40 17.2043 40 19.9761C40 22.7479 39.4743 25.3445 38.4229 27.7658C37.3716 30.1872 35.9379 32.3059 34.1219 34.1219C32.3059 35.9379 30.1872 37.3716 27.7658 38.4229C25.3445 39.4743 22.7479 40 19.9761 40C17.2043 40 14.6077 39.4743 12.1864 38.4229C9.76503 37.3716 7.65432 35.9379 5.85424 34.1219C4.05416 32.3059 2.62843 30.1872 1.57706 27.7658C0.525687 25.3445 0 22.7479 0 19.9761C0 17.2043 0.525687 14.6077 1.57706 12.1864C2.62843 9.76503 4.05416 7.65432 5.85424 5.85424C7.65432 4.05416 9.76503 2.62843 12.1864 1.57706C14.6077 0.525687 17.2043 0 19.9761 0ZM13.7634 15.006H8.74552V31.2545H13.7634V15.006ZM11.2306 13.7157C11.9315 13.7157 12.5289 13.4767 13.0227 12.9988C13.5165 12.5209 13.7634 11.9315 13.7634 11.2306C13.7634 10.5297 13.5165 9.94026 13.0227 9.46237C12.5289 8.98447 11.9315 8.74552 11.2306 8.74552C10.5297 8.74552 9.94026 8.98447 9.46237 9.46237C8.98447 9.94026 8.74552 10.5297 8.74552 11.2306C8.74552 11.9315 8.98447 12.5209 9.46237 12.9988C9.94026 13.4767 10.5297 13.7157 11.2306 13.7157ZM31.2545 21.8399C31.2545 20.693 30.9359 19.5699 30.2987 18.4707C29.6615 17.3716 28.8331 16.5352 27.8136 15.9618C26.8897 15.452 25.8144 15.1812 24.5878 15.1493C23.3612 15.1175 22.2382 15.3246 21.2186 15.7706V15.006H16.2485V31.2545H21.2186V21.3142L23.3214 20.3106C23.5763 20.1832 23.9188 20.1195 24.3489 20.1195C24.779 20.1195 25.1215 20.1991 25.3763 20.3584C25.5675 20.454 25.7587 20.6611 25.9498 20.9797C26.141 21.2983 26.2366 21.585 26.2366 21.8399V31.2545H31.2545V21.8399Z" fill="white"/>
</svg>
